# ProBuilder 4.3.1
# https://unity3d.com/unity/features/worldbuilding/probuilder
# 2020/08/03 18:43:20

mtllib ./Floor.mtl
o Floor

g Floor
v 22.67707 4.8682 -1.279848
v 22.67707 9.8682 -1.279848
v 24.14537 4.8682 7.990662
v 24.14537 9.8682 7.990662
v 28.40656 4.8682 16.35371
v 28.40656 9.8682 16.35371
v 35.04351 4.8682 22.99066
v 35.04351 9.8682 22.99066
v 43.40656 4.8682 27.25185
v 43.40656 9.8682 27.25185
v 52.67707 4.8682 28.72015
v 52.67707 9.8682 28.72015
v 61.94757 4.8682 27.25185
v 61.94757 9.8682 27.25185
v 70.31062 4.8682 22.99066
v 70.31062 9.8682 22.99066
v 76.94758 4.8682 16.35371
v 76.94758 9.8682 16.35371
v 81.20876 4.8682 7.990663
v 81.20876 9.8682 7.990663
v 82.67706 4.8682 -1.27985
v 82.67706 9.8682 -1.27985
v 81.20876 4.8682 -10.55036
v 81.20876 9.8682 -10.55036
v 76.94758 4.8682 -18.9134
v 76.94758 9.8682 -18.9134
v 70.31062 4.8682 -25.55035
v 70.31062 9.8682 -25.55035
v 61.94758 4.8682 -29.81154
v 61.94758 9.8682 -29.81154
v 52.67707 4.8682 -31.27985
v 52.67707 9.8682 -31.27985
v 43.40656 4.8682 -29.81154
v 43.40656 9.8682 -29.81154
v 35.04351 4.8682 -25.55036
v 35.04351 9.8682 -25.55036
v 28.40656 4.8682 -18.91341
v 28.40656 9.8682 -18.91341
v 24.14537 4.8682 -10.55036
v 24.14537 9.8682 -10.55036
v 52.67707 4.8682 -1.279848
v 52.67707 9.8682 -1.279848

vt 0 0
vt 0 5
vt 9.386067 0
vt 9.386067 5
vt 8.926681 0
vt 8.926681 5
vt 18.31275 0
vt 18.31275 5
vt 16.52017 0
vt 16.52017 5
vt 25.90624 0
vt 25.90624 5
vt 22.03716 0
vt 22.03716 5
vt 31.42323 0
vt 31.42323 5
vt 24.93762 0
vt 24.93762 5
vt 34.32368 0
vt 34.32368 5
vt -9.386064 0
vt -9.386064 5
vt -18.31275 0
vt -18.31275 5
vt -8.926687 0
vt -8.926687 5
vt -25.90625 0
vt -25.90625 5
vt -16.52019 0
vt -16.52019 5
vt -31.42322 0
vt -31.42322 5
vt -22.03715 0
vt -22.03715 5
vt -34.32368 0
vt -34.32368 5
vt -24.93761 0
vt -24.93761 5
vt 30 0
vt 1.468304 9.27051
vt -30 0
vt -1.468304 9.27051
vt 5.72949 17.63356
vt -5.72949 17.63356
vt 12.36644 24.27051
vt -12.36644 24.27051
vt 20.72949 28.5317
vt -20.72949 28.5317
vt 30 30
vt -30 30
vt 39.27051 28.5317
vt -39.27051 28.5317
vt 47.63356 24.27051
vt -47.63356 24.27051
vt 54.27051 17.63356
vt -54.27051 17.63356
vt 58.53169 9.270511
vt -58.53169 9.270511
vt 60 -2.622683E-06
vt -60 -2.622683E-06
vt 58.5317 -9.270509
vt -58.5317 -9.270509
vt 54.27051 -17.63355
vt -54.27051 -17.63355
vt 47.63356 -24.2705
vt -47.63356 -24.2705
vt 39.27051 -28.53169
vt -39.27051 -28.53169
vt 30 -30
vt -30 -30
vt 20.72949 -28.53169
vt -20.72949 -28.53169
vt 12.36645 -24.27051
vt -12.36645 -24.27051
vt 5.729492 -17.63356
vt -5.729492 -17.63356
vt 1.468304 -9.270508
vt -1.468304 -9.270508

vn -0.9876884 0 0.1564344
vn -0.8910065 0 0.4539907
vn -0.7071069 0 0.7071067
vn -0.4539905 0 0.8910066
vn -0.1564344 0 0.9876884
vn 0.1564344 0 0.9876884
vn 0.4539905 0 0.8910065
vn 0.7071067 0 0.7071069
vn 0.8910067 0 0.4539902
vn 0.9876883 0 0.1564347
vn 0.9876884 0 -0.1564344
vn 0.8910065 0 -0.4539905
vn 0.7071066 0 -0.7071069
vn 0.4539909 0 -0.8910064
vn 0.1564346 0 -0.9876884
vn -0.1564345 0 -0.9876884
vn -0.4539905 0 -0.8910066
vn -0.7071068 0 -0.7071068
vn -0.8910065 0 -0.4539906
vn -0.9876884 0 -0.1564344
vn 0 -1 0
vn 0 1 0

usemtl ProBuilderDefault
f 1/1/21 41/39/21 3/40/21
f 3/40/21 41/39/21 5/43/21
f 5/43/21 41/39/21 7/45/21
f 7/45/21 41/39/21 9/47/21
f 9/47/21 41/39/21 11/49/21
f 11/49/21 41/39/21 13/51/21
f 13/51/21 41/39/21 15/53/21
f 15/53/21 41/39/21 17/55/21
f 17/55/21 41/39/21 19/57/21
f 19/57/21 41/39/21 21/59/21
f 21/59/21 41/39/21 23/61/21
f 23/61/21 41/39/21 25/63/21
f 25/63/21 41/39/21 27/65/21
f 27/65/21 41/39/21 29/67/21
f 29/67/21 41/39/21 31/69/21
f 31/69/21 41/39/21 33/71/21
f 33/71/21 41/39/21 35/73/21
f 35/73/21 41/39/21 37/75/21
f 37/75/21 41/39/21 39/77/21
f 39/77/21 41/39/21 1/1/21
f 4/42/22 42/41/22 2/1/22
f 6/44/22 42/41/22 4/42/22
f 8/46/22 42/41/22 6/44/22
f 10/48/22 42/41/22 8/46/22
f 12/50/22 42/41/22 10/48/22
f 14/52/22 42/41/22 12/50/22
f 16/54/22 42/41/22 14/52/22
f 18/56/22 42/41/22 16/54/22
f 20/58/22 42/41/22 18/56/22
f 22/60/22 42/41/22 20/58/22
f 24/62/22 42/41/22 22/60/22
f 26/64/22 42/41/22 24/62/22
f 28/66/22 42/41/22 26/64/22
f 30/68/22 42/41/22 28/66/22
f 32/70/22 42/41/22 30/68/22
f 34/72/22 42/41/22 32/70/22
f 36/74/22 42/41/22 34/72/22
f 38/76/22 42/41/22 36/74/22
f 40/78/22 42/41/22 38/76/22
f 2/1/22 42/41/22 40/78/22
f 4/4/1 2/2/1 1/1/1
f 1/1/1 3/3/1 4/4/1
f 6/8/2 4/6/2 3/5/2
f 3/5/2 5/7/2 6/8/2
f 8/12/3 6/10/3 5/9/3
f 5/9/3 7/11/3 8/12/3
f 10/16/4 8/14/4 7/13/4
f 7/13/4 9/15/4 10/16/4
f 12/20/5 10/18/5 9/17/5
f 9/17/5 11/19/5 12/20/5
f 14/20/6 12/18/6 11/17/6
f 11/17/6 13/19/6 14/20/6
f 16/16/7 14/14/7 13/13/7
f 13/13/7 15/15/7 16/16/7
f 18/12/8 16/10/8 15/9/8
f 15/9/8 17/11/8 18/12/8
f 20/8/9 18/6/9 17/5/9
f 17/5/9 19/7/9 20/8/9
f 22/4/10 20/2/10 19/1/10
f 19/1/10 21/3/10 22/4/10
f 24/2/11 22/22/11 21/21/11
f 21/21/11 23/1/11 24/2/11
f 26/26/12 24/24/12 23/23/12
f 23/23/12 25/25/12 26/26/12
f 28/30/13 26/28/13 25/27/13
f 25/27/13 27/29/13 28/30/13
f 30/34/14 28/32/14 27/31/14
f 27/31/14 29/33/14 30/34/14
f 32/38/15 30/36/15 29/35/15
f 29/35/15 31/37/15 32/38/15
f 34/38/16 32/36/16 31/35/16
f 31/35/16 33/37/16 34/38/16
f 36/34/17 34/32/17 33/31/17
f 33/31/17 35/33/17 36/34/17
f 38/30/18 36/28/18 35/27/18
f 35/27/18 37/29/18 38/30/18
f 40/26/19 38/24/19 37/23/19
f 37/23/19 39/25/19 40/26/19
f 2/2/20 40/22/20 39/21/20
f 39/21/20 1/1/20 2/2/20

